PathFileType	4	(X/Y/Z)	C:/Users/opensim2020/Desktop/walking_exp_matlab/subject03_walking11_straight_02.trc																																																																																																																																								
DataRate	CameraRate	NumFrames	NumMarkers	Units	OrigDataRate	OrigDataStartFrame	OrigNumFrames																																																																																																																																				
100	100	9	46	mm	100	2066	357																																																																																																																																				
Frame#	Time	LFHD			RFHD			LBHD			RBHD			C7			T10			CLAV			STRN			RBAK			LSHO			LUPA			LELB			LFRM			LWRA			LWRB			LFIN			RSHO			RUPA			RELB			RFRM			RWRA			RWRB			RFIN			LASI			RASI			LPSI			RPSI			LTHI			LKNE			LTIB			LANK			LHEE			LTOE			RTHI			RKNE			RTIB			RANK			RHEE			RTOE			*39			*40			*41			*42			*43			*44			*45		
		X1	Y1	Z1	X2	Y2	Z2	X3	Y3	Z3	X4	Y4	Z4	X5	Y5	Z5	X6	Y6	Z6	X7	Y7	Z7	X8	Y8	Z8	X9	Y9	Z9	X10	Y10	Z10	X11	Y11	Z11	X12	Y12	Z12	X13	Y13	Z13	X14	Y14	Z14	X15	Y15	Z15	X16	Y16	Z16	X17	Y17	Z17	X18	Y18	Z18	X19	Y19	Z19	X20	Y20	Z20	X21	Y21	Z21	X22	Y22	Z22	X23	Y23	Z23	X24	Y24	Z24	X25	Y25	Z25	X26	Y26	Z26	X27	Y27	Z27	X28	Y28	Z28	X29	Y29	Z29	X30	Y30	Z30	X31	Y31	Z31	X32	Y32	Z32	X33	Y33	Z33	X34	Y34	Z34	X35	Y35	Z35	X36	Y36	Z36	X37	Y37	Z37	X38	Y38	Z38	X39	Y39	Z39	X40	Y40	Z40	X41	Y41	Z41	X42	Y42	Z42	X43	Y43	Z43	X44	Y44	Z44	X45	Y45	Z45	X46	Y46	Z46
																																																																																																																																											
268	2.67	750.99847	1608.19226	949.30023	755.89941	1608.27429	1082.5127	621.69214	1568.52856	957.90253	631.62695	1568.45325	1088.22253	588.41034	1407.83411	1016.4577	550.85986	1093.41003	1018.59448	708.95648	1329.55652	1006.00879	747.95435	1163.72095	1000.43964	541.6217	1234.02649	1120.52197	649.65271	1365.18823	853.75464	616.06177	1166.12817	790.54718	610.67542	1042.08167	783.48505	629.65356	912.90009	786.66187	647.39014	796.1441	820.22449	617.48859	799.62384	772.67773	630.35461	716.25885	785.07776	679.91602	1354.41931	1169.06812	717.4635	1136.86072	1241.46704	757.19244	1031.04297	1250.44714	811.36694	905.9306	1240.18945	860.92035	826.27881	1192.2677	840.5401	809.92999	1239.66882	882.63916	751.1217	1220.4939	712.70233	928.22247	896.87543	718.45123	929.30536	1134.66345	551.45728	947.33051	947.42731	557.25421	961.83606	1096.85364	710.43811	626.59637	851.22668	772.75305	460.96222	892.88116	772.34552	269.70187	889.39667	819.87714	63.52884	920.43341	789.30695	25.6914	962.19965	973.24432	41.94546	934.4613	625.95532	640.43793	1173.57593	603.03314	461.34909	1139.62708	507.30777	291.79767	1142.90967	419.75687	91.85979	1095.21021	367.9834	71.4888	1045.86145	551.24329	30.06756	1071.93738	673.83704	1670.46423	1006.09387	NaN	NaN	NaN	NaN	NaN	NaN	NaN	NaN	NaN	NaN	NaN	NaN	NaN	NaN	NaN	NaN	NaN	NaN
269	2.68	757.40485	1608.59778	947.69092	762.2113	1608.85144	1080.92883	627.80231	1568.36707	956.92352	638.09979	1568.29578	1086.85352	595.2265	1407.71399	1014.40704	558.60175	1093.21619	1016.60437	716.08746	1329.76465	1004.72638	755.38574	1164.02063	999.62543	548.07831	1233.96387	1118.07312	657.57635	1364.90552	852.00049	624.0354	1165.66382	789.14862	618.70013	1041.62939	782.26727	637.00641	912.23712	785.73254	654.13861	795.50562	819.64764	624.43237	799.04504	771.99316	636.83301	715.65845	784.59637	686.1308	1354.63721	1167.79089	722.72833	1136.66687	1240.09399	761.94568	1030.60645	1249.2843	815.51312	905.1817	1239.2428	864.90155	825.27924	1191.63013	844.14215	808.9704	1238.98975	885.91766	749.93042	1219.97168	720.82159	928.05457	896.26831	725.32275	929.08093	1134.12769	559.39752	947.65692	945.52557	564.25867	961.77185	1095.1925	717.5141	627.25507	851.02148	776.84589	460.50363	892.49823	775.73297	269.53195	889.35541	822.52563	63.53492	919.46521	790.64459	26.67957	961.24109	975.85553	38.18197	936.71606	631.87866	640.37848	1172.81128	608.58832	461.30823	1139.10962	511.00119	292.72552	1142.72461	421.13745	93.65079	1095.29919	368.90799	74.08424	1046.323	551.49591	30.06276	1072.02686	679.59418	1670.65417	1004.78766	NaN	NaN	NaN	NaN	NaN	NaN	NaN	NaN	NaN	NaN	NaN	NaN	NaN	NaN	NaN	NaN	NaN	NaN
270	2.69	763.6637	1609.48828	946.0672	768.52185	1609.6228	1079.37634	634.20654	1568.52502	955.49249	644.67841	1568.4502	1085.34839	602.23071	1407.96167	1012.46655	566.24957	1093.30029	1014.77155	723.27087	1330.24573	1003.42871	762.82672	1164.53442	998.79541	554.56122	1234.05408	1115.79443	665.53461	1364.84326	850.22333	632.43433	1165.38538	787.56903	626.76666	1041.18433	780.9364	644.67017	911.77362	785.0022	660.71082	794.97217	819.25269	631.59125	798.61646	771.19922	643.60358	715.26563	784.04138	692.20557	1354.99072	1166.56104	727.88104	1136.67151	1238.74854	766.58368	1030.3927	1248.12866	819.40857	904.47632	1238.30151	868.52771	824.19708	1191.08386	847.29059	808.1333	1238.20642	888.87585	748.86755	1219.56726	728.93506	928.28833	895.64624	732.24316	928.95477	1133.43945	567.25092	948.58624	943.88501	571.4613	961.95135	1093.68933	724.42957	628.18982	850.64349	781.13611	460.5809	892.05756	779.40118	269.67221	888.37085	825.6828	63.27938	919.6532	792.29639	27.64291	960.52997	978.92114	36.5536	936.39111	638.06958	640.4624	1171.99475	614.51648	461.34952	1138.55005	514.96759	293.82629	1142.54016	422.52985	95.7589	1095.62573	369.98419	77.00569	1046.6991	551.54413	29.86895	1072.25452	685.23279	1671.16296	1003.57019	NaN	NaN	NaN	NaN	NaN	NaN	NaN	NaN	NaN	NaN	NaN	NaN	NaN	NaN	NaN	NaN	NaN	NaN
271	2.7	769.95795	1610.43188	944.50092	774.93237	1610.59302	1077.79956	640.64764	1568.82739	954.04242	651.24664	1568.86035	1083.89026	609.23779	1408.4856	1010.27173	573.71387	1093.77136	1013.35303	730.5885	1330.96082	1002.08331	770.35931	1165.23621	997.86066	561.28699	1234.38086	1113.19702	673.58411	1365.01355	848.51379	640.89453	1165.3252	786.0816	635.22827	1041.06128	779.61511	652.59338	911.55475	784.05121	667.8017	794.77551	818.68799	639.05261	798.42395	770.40759	650.69336	715.14301	783.37012	698.43274	1355.54468	1165.1665	732.93805	1136.9552	1237.33093	771.21881	1030.35205	1246.85266	823.08545	904.00433	1237.41846	871.97729	823.37213	1190.67944	850.30078	807.52747	1237.76831	891.48029	747.92377	1219.39148	736.96545	928.98224	894.98169	739.33514	929.00476	1132.56848	575.12268	949.74487	942.2597	578.9043	962.33728	1092.23914	730.97888	629.37073	850.26978	785.46631	460.85474	891.62158	783.23224	269.95309	887.64124	827.3725	63.1825	919.99384	793.33221	28.26565	960.39331	980.80853	35.07122	934.61261	644.5968	640.59613	1171.08435	620.7951	461.50659	1137.93945	519.09137	295.08942	1142.23096	423.96194	98.29697	1096.26038	371.2645	80.22139	1046.99109	551.80664	29.85808	1072.31421	691.56085	1671.47021	1001.58673	NaN	NaN	NaN	NaN	NaN	NaN	NaN	NaN	NaN	NaN	NaN	NaN	NaN	NaN	NaN	NaN	NaN	NaN
272	2.71	776.34564	1611.52942	942.88751	781.31018	1611.755	1076.2688	647.20703	1569.28284	952.49664	657.85168	1569.43176	1082.42871	616.5188	1409.26855	1008.43658	581.31464	1094.42261	1011.84314	737.85516	1331.82227	1000.78674	777.90863	1166.17358	996.93933	568.02167	1234.96008	1110.86353	681.73761	1365.52161	847.00073	649.64349	1165.55774	784.60291	643.91736	1041.21716	778.32397	660.84796	911.63513	783.14014	675.20612	794.89288	818.00763	646.9433	798.61182	769.42456	658.16766	715.30853	782.58069	704.75702	1356.44275	1163.90955	737.99054	1137.49927	1235.88184	775.81335	1030.73694	1245.41418	826.45441	903.76288	1236.6134	875.17218	822.7738	1190.34949	852.81073	807.11792	1237.33618	893.73389	747.18854	1219.37793	745.06317	930.15149	894.09174	746.49316	929.22766	1131.62964	582.79974	951.2641	941.01178	586.3233	962.88495	1091.03503	737.28033	630.68066	850.02167	790.13098	461.44669	891.32764	786.72125	270.21805	887.06519	827.80518	63.62878	920.21051	793.67017	28.56677	960.65857	981.99225	34.14584	934.1543	651.42993	640.81281	1170.12878	627.37256	461.7168	1137.27026	523.45752	296.56171	1141.98096	425.68756	100.96367	1096.24768	372.79184	83.72079	1047.29224	552.10083	29.8047	1072.37952	697.93604	1671.85913	999.50995	NaN	NaN	NaN	NaN	NaN	NaN	NaN	NaN	NaN	NaN	NaN	NaN	NaN	NaN	NaN	NaN	NaN	NaN
273	2.72	782.70135	1612.79272	941.28729	787.70917	1613.06104	1074.62756	653.4317	1569.89685	951.31396	664.47791	1570.12561	1080.87463	623.70569	1410.20837	1006.57117	588.72089	1095.44556	1010.64807	745.19177	1332.85303	999.46692	785.48425	1167.25183	995.93958	574.92371	1235.79138	1108.6416	689.8064	1366.18164	845.36194	658.70862	1166.11096	783.09863	653.04785	1041.75122	776.99292	669.38269	912.08044	782.15167	682.84485	795.396	816.99432	655.17706	799.086	768.33887	665.9408	715.7052	781.72961	711.414	1357.70911	1162.4696	743.01617	1138.31262	1234.45276	780.24835	1031.26733	1244.08044	829.82117	903.8775	1235.77039	878.05273	822.276	1190.06384	855.06201	806.81488	1236.89587	895.62659	746.60901	1219.50525	752.94427	931.66595	893.23279	754.25989	929.77441	1129.99536	590.66321	952.86359	939.86761	593.93854	963.56763	1089.93506	743.474	632.1427	849.73785	795.02576	462.27216	891.09949	789.6474	270.55765	886.67871	827.86133	63.9325	920.41266	793.71967	28.74618	960.77429	982.61633	33.51685	935.59357	658.62445	641.09644	1169.12512	634.42828	462.07782	1136.68274	528.09033	298.25089	1141.74219	427.62469	103.90221	1096.9021	374.63034	87.67477	1047.47302	552.46204	29.79012	1072.45874	703.42725	1673.31689	999.25464	NaN	NaN	NaN	NaN	NaN	NaN	NaN	NaN	NaN	NaN	NaN	NaN	NaN	NaN	NaN	NaN	NaN	NaN
274	2.73	789.13348	1614.1499	939.66864	794.13184	1614.47217	1072.97229	660.4281	1570.63916	949.36578	671.14032	1570.97437	1079.20422	630.89142	1411.24988	1004.66711	596.14807	1096.59058	1009.23529	752.58087	1334.00977	998.12866	793.06372	1168.46838	994.92499	581.89459	1236.8479	1106.58765	697.99469	1367.14551	843.77759	667.86664	1166.93896	781.5816	662.56	1042.73425	775.72528	678.27502	912.87488	781.16547	691.03302	796.19385	816.02814	663.83734	799.89142	767.09338	674.13049	716.47375	780.74194	717.81128	1359.1366	1161.1228	748.04553	1139.34619	1232.96387	784.40637	1031.98962	1242.81055	832.79736	904.13306	1235.07764	880.6142	821.91162	1189.97217	857.14191	806.88171	1236.49463	897.20459	746.19055	1219.72644	760.8288	933.34161	892.16425	761.13818	930.14655	1128.94299	598.18451	954.7226	938.91541	601.59686	964.42169	1088.92871	749.86597	633.74609	849.62158	799.7121	463.06329	891.0152	792.32782	271.03168	886.65637	828.84851	63.92885	921.06445	794.08984	28.70417	961.08801	983.22913	33.02327	936.67505	666.19812	641.43793	1168.12659	642.03778	462.51627	1136.26318	533.08459	300.10663	1141.61182	430.06552	107.09858	1097.20349	376.80188	91.99296	1047.62244	552.89099	29.7617	1072.54785	708.89282	1674.41223	999.25073	NaN	NaN	NaN	NaN	NaN	NaN	NaN	NaN	NaN	NaN	NaN	NaN	NaN	NaN	NaN	NaN	NaN	NaN
275	2.74	795.19324	1615.64209	938.24487	800.5285	1616.03357	1071.30786	666.98816	1571.45886	947.80029	677.76056	1571.95813	1077.57581	638.06372	1412.25598	1002.50189	603.36237	1097.83105	1007.87549	759.94061	1335.23694	996.77252	800.59741	1169.75049	993.89716	588.98169	1238.06311	1104.71533	706.11768	1368.34961	842.31714	677.13013	1167.95361	780.07526	672.24298	1043.85754	774.21185	687.43756	913.88843	780.07501	699.36328	797.14038	815.05066	672.90082	800.9209	765.74829	682.64697	717.40234	779.64301	724.52765	1360.61426	1159.50562	753.10406	1140.58911	1231.48206	788.64697	1032.99438	1241.43652	835.64606	904.53564	1234.40027	882.97723	821.69635	1189.93652	859.00085	807.02948	1236.29675	898.47876	745.85864	1220.0033	768.5694	935.00989	890.8725	768.36591	930.8894	1127.5448	605.91522	956.4295	937.90765	609.24091	965.39917	1087.88184	755.87714	635.10315	849.08417	804.15326	463.94366	890.88623	794.62781	271.46814	886.5556	829.21625	64.09483	921.19836	794.1377	28.73624	961.14294	983.57501	32.72712	936.77832	674.02667	641.9212	1167.24182	650.27161	462.92664	1136.00281	538.38208	302.27985	1141.62146	432.45511	110.79582	1097.24585	379.37527	96.78917	1047.6637	553.29187	29.7587	1072.65759	716.24402	1674.83411	994.65015	NaN	NaN	NaN	NaN	NaN	NaN	NaN	NaN	NaN	NaN	NaN	NaN	NaN	NaN	NaN	NaN	NaN	NaN
276	2.75	802.01892	1616.98315	936.36768	806.97266	1617.59509	1069.67859	673.70264	1572.33801	946.10504	684.35974	1572.99402	1075.94824	645.23566	1413.41003	1000.88116	610.68201	1099.04138	1006.50476	767.28571	1336.53308	995.44574	808.09613	1171.08838	992.77856	596.03601	1239.44812	1103.0011	714.23151	1369.56128	840.85065	686.41498	1169.10254	778.64154	681.49609	1044.83679	773.04919	696.90112	915.12189	778.9201	708.00085	798.10291	814.2973	682.41785	802.15997	764.26276	691.57532	718.47559	778.41351	731.18872	1362.33911	1157.99133	758.16376	1141.91931	1230.0614	792.79401	1034.00159	1240.10571	838.45538	905.09222	1233.80957	885.23987	821.57092	1189.93286	860.66754	807.27686	1236.11658	899.59021	745.57446	1220.3031	776.37421	936.69073	889.46545	776.59851	932.25598	1125.89368	613.67688	958.12213	936.8562	616.79572	966.51489	1086.77478	761.89215	636.36963	848.61145	808.1662	464.68369	890.55365	796.69073	271.79016	886.14532	829.38971	64.13737	921.34668	794.16376	28.80528	961.12042	983.58508	32.36338	936.72955	682.11865	642.47357	1166.41992	659.12109	463.37466	1136.08252	544.22156	304.53473	1141.79529	435.48386	114.56386	1097.62036	382.44928	102.01138	1047.58691	553.74945	29.75968	1072.78979	721.28992	1676.60974	995.64264	NaN	NaN	NaN	NaN	NaN	NaN	NaN	NaN	NaN	NaN	NaN	NaN	NaN	NaN	NaN	NaN	NaN	NaN
